<svg width="357" height="242" viewBox="0 0 357 242" fill="none" xmlns="http://www.w3.org/2000/svg">
<g clip-path="url(#clip0)">
<path d="M358.838 9V43.6369H235.53" stroke="white" stroke-width="1.3"/>
<path d="M325.587 45.0234V79.6603H202.279" stroke="white" stroke-width="1.3"/>
<path d="M290.949 79.6592V117.067L164.87 116.374" stroke="white" stroke-width="1.3"/>
<path d="M257.697 117.068V150.32H127.463" stroke="white" stroke-width="1.3"/>
<path d="M221.676 150.319V187.727H94.2123" stroke="white" stroke-width="1.3"/>
<path d="M185.653 187.726V219.592H56.8036" stroke="white" stroke-width="1.3"/>
<path d="M149.631 220.979V257.001H-4.76837e-06" stroke="white" stroke-width="1.3"/>
<path d="M396.246 9H236.081V44.0829H202.614V80.3756H165.561V116.668H132.093V150.541H96.2353V188.044H61.5727V220.707H26.9101V257H0.000266552" stroke="white" stroke-width="1.3"/>
<path fill-rule="evenodd" clip-rule="evenodd" d="M107.68 87.5978C110.211 89.0844 112.697 89.8026 113.864 89.5094C116.791 88.7738 117.06 78.3342 114.795 74.2186C112.53 70.103 100.886 68.3092 100.299 76.4635C100.095 79.2942 101.315 81.8203 103.117 83.8814L99.8875 98.5536H109.268L107.68 87.5978Z" fill="#FFDEBF"/>
<path fill-rule="evenodd" clip-rule="evenodd" d="M108.772 69.1143C107.542 68.9331 104.231 68.8086 103.621 68.8086C103.23 68.8086 102.807 68.8887 102.576 68.5668C102.387 68.3032 102.456 67.8574 102.4 67.5515C102.334 67.1962 102.241 66.8454 102.147 66.4956C101.879 65.5 101.473 64.5528 100.906 63.6635C99.8413 61.9951 98.2818 60.6883 96.3129 59.9278C94.1387 59.0881 91.6784 58.8959 89.3398 59.0662C86.8371 59.2484 84.5716 59.9906 82.2087 60.6891C79.9569 61.3546 77.5985 61.6166 75.2434 61.2916C72.8706 60.9642 71.0777 59.8088 69.0762 58.7122C67.0273 57.5896 64.6858 56.8553 62.2636 57.0241C60.0026 57.1817 57.9187 58.0204 56.0491 59.1408C54.2998 60.1891 52.8564 61.4502 52.0415 63.2253C51.1649 65.1347 51.1657 67.2305 52.6073 68.918C54.6968 71.364 58.5759 71.9965 61.8032 71.9336C63.6699 71.8974 65.5032 71.5912 67.2656 71.0344C69.6159 70.2917 71.647 69.0329 73.8458 68.0116C74.8777 67.5323 75.9443 67.1387 77.0624 66.8552C78.1473 66.5799 79.2159 66.4537 80.1981 67.0425C81.2373 67.6653 82.1684 68.2772 83.3572 68.6671C84.4976 69.0412 85.7056 69.2504 86.9206 69.242C89.2846 69.2256 91.615 68.5639 93.911 68.1206C95.7833 67.7593 97.7866 67.3991 99.6954 67.7465C100.492 67.8914 101.655 68.1907 101.943 68.9344C97.1011 69.7228 95.1995 75.1024 96.5645 79.0515C97.3012 81.183 101.73 83.6747 103.452 82.5541C104.542 81.8442 103.88 80.9122 103.452 80.297C102.631 79.1188 102.35 77.6054 103.869 76.7851C105.179 76.0776 106.556 77.7577 106.582 77.7558C106.942 77.7303 110.054 76.1496 112.197 73.8429C114.312 73.9555 114.633 72.7029 114.128 71.6785C113.623 70.654 110.471 69.3648 108.772 69.1143Z" fill="#494F95"/>
<path fill-rule="evenodd" clip-rule="evenodd" d="M92.9479 130.446C93.645 139.801 138.553 167.344 138.815 168.117C138.99 168.632 124.837 200.688 124.837 200.688L128.763 202.188C128.763 202.188 150.471 168.238 149.356 164.621C147.76 159.442 114.512 130.546 114.512 130.546L92.9479 130.446Z" fill="#FFDEBF"/>
<path fill-rule="evenodd" clip-rule="evenodd" d="M125.869 195.863L132.278 198.157C145.793 183.163 151.091 170.792 150.125 164.489C149.159 158.186 115.401 130.471 115.401 130.471L92.4868 130.471C93.2687 152.136 134.893 168.201 135.45 169.124C136.007 170.047 130.528 179.089 125.869 195.863Z" fill="#494F95"/>
<path fill-rule="evenodd" clip-rule="evenodd" d="M125.544 200.767C124.62 200.067 123.265 200.05 122.576 200.991C122.276 201.4 122.014 201.811 121.897 202.129C121.539 203.095 121.18 205.066 121.18 205.066C122.32 205.474 141.671 212.399 141.671 212.399C141.671 212.399 143.43 210.089 141.786 209.266C140.142 208.443 139.065 207.869 139.065 207.869L131.537 200.713C131.133 200.329 130.487 200.352 130.105 200.763L129.38 201.544C129.38 201.544 127.517 201.704 126.521 201.348C126.227 201.243 125.883 201.024 125.544 200.767Z" fill="#E4E4E4"/>
<path fill-rule="evenodd" clip-rule="evenodd" d="M97.5917 131.128L77.716 178.599L58.1812 218.732H62.7901L113.215 131.128H97.5917Z" fill="#FFDEBF"/>
<path fill-rule="evenodd" clip-rule="evenodd" d="M61.6511 214.972C60.4539 214.603 59.0608 215.057 58.7661 216.275C58.6412 216.791 58.5498 217.291 58.5498 217.652C58.5498 218.791 58.8817 220.976 58.8817 220.976C60.0372 220.976 79.651 220.976 79.651 220.976C79.651 220.976 80.4606 217.915 78.7163 217.671C76.9721 217.427 75.8184 217.23 75.8184 217.23L66.8294 212.647C66.2931 212.374 65.6385 212.633 65.4344 213.199L65.0541 214.254C65.0541 214.254 63.4394 215.116 62.4298 215.116C62.2062 215.116 61.9361 215.059 61.6511 214.972Z" fill="#E4E4E4"/>
<path fill-rule="evenodd" clip-rule="evenodd" d="M59.3038 208.993L69.5638 210.87C77.4969 199.493 110.697 152.844 114.337 131.128H91.4959C79.3398 146.827 66.8656 197.428 59.3038 208.993Z" fill="#5C63AB"/>
<path fill-rule="evenodd" clip-rule="evenodd" d="M146.672 113.452L132.582 119.538L137.081 125.208L147.634 117.25C152.905 116.297 155.35 115.479 154.968 114.795C154.646 114.219 154.047 114.186 153.495 114.156C153.065 114.133 152.663 114.111 152.444 113.835C151.943 113.204 153.179 111.256 154.432 109.456C155.685 107.656 154.511 107.721 153.823 107.936C151.524 109.194 149.141 111.033 146.672 113.452ZM83.5842 122.77L75.6154 121.215C70.2111 135.225 66.9891 142.902 65.9496 144.247C65.1872 145.233 60.486 147.773 57.3039 149.129C56.0266 149.674 56.3008 150.735 56.6755 151.075C59.0384 153.217 61.2351 152.466 63.6264 151.649C64.3187 151.412 65.0272 151.17 65.7609 150.991C67.6598 150.527 68.2376 151.488 68.7837 152.395C69.2672 153.199 69.7258 153.961 71.0543 153.657C70.9939 153.4 70.9197 153.113 70.8395 152.803C70.3216 150.799 69.5579 147.843 70.691 146.126C71.2725 145.244 75.5702 137.459 83.5842 122.77Z" fill="#FFDEBF"/>
<path fill-rule="evenodd" clip-rule="evenodd" d="M105.244 91.8921L108.607 91.3248C115.931 98.3127 118.92 115.101 123.801 117.323C128.416 119.424 134.958 117.391 142.734 114.646L145.115 119.879C138.05 127.397 122.998 133.748 116.897 130.122C107.142 124.325 104.891 103.619 105.244 91.8921Z" fill="#DB2721"/>
<path fill-rule="evenodd" clip-rule="evenodd" d="M90.752 133.373C90.752 133.373 110.652 133.373 120.029 133.373C121.366 133.373 121.114 131.434 120.921 130.455C118.689 119.158 109.977 106.981 109.977 90.901L101.532 89.5713C94.5468 100.852 92.1313 114.74 90.752 133.373Z" fill="#DDE3E9"/>
<path fill-rule="evenodd" clip-rule="evenodd" d="M102.535 89.8545H100.986C81.736 101.522 70.1024 119.608 66.0851 144.112L72.3217 145.313C76.4514 140.581 81.5475 132.838 87.61 122.083C85.7508 128.562 84.3934 135.206 83.9699 141.489H110.753C115.938 128.602 104.381 89.8551 104.381 89.8551H102.535L102.535 89.8545Z" fill="#FF4133"/>
</g>
<defs>
<clipPath id="clip0">
<rect width="357" height="242" fill="white"/>
</clipPath>
</defs>
</svg>
