<svg width="318" height="403" viewBox="0 0 318 403" fill="none" xmlns="http://www.w3.org/2000/svg">
<path d="M163.932 163.61L157.199 170.342" stroke="black" stroke-width="0.844235"/>
<path d="M131.053 189.792L0.705078 141.061L110.426 104.513L243.421 149.397L131.053 189.792Z" fill="#2D3036"/>
<path d="M0.705566 141.529L126.656 186.359V393.429H0.705566V141.529Z" fill="url(#paint0_linear)"/>
<path d="M243.323 150.577L126.557 185.85V393.293H243.323V150.577Z" fill="url(#paint1_linear)"/>
<path d="M6.08118 147.821L53.9627 130.281L79.0222 123.085L87.972 127.133L68.7299 171.207L6.08118 147.821Z" fill="url(#paint2_linear)"/>
<path d="M76.9963 173.142L155.499 148.487L178.826 139.97L212.918 148.487L126.341 190.624L76.9963 173.142Z" fill="url(#paint3_linear)"/>
<path d="M191.97 121.912L180.194 148.003" stroke="black" stroke-width="5.06541" stroke-linecap="round"/>
<path d="M182.317 119.79L194.785 148.882L207.715 119.79" stroke="black" stroke-width="4.22118" stroke-linecap="round" stroke-linejoin="round"/>
<path d="M198.217 120.852L209.993 147.405" stroke="black" stroke-width="4.22118" stroke-linecap="round"/>
<ellipse cx="168.522" cy="88.3662" rx="18.0097" ry="4.61787" fill="url(#paint4_linear)"/>
<path d="M150.512 92.0492V89.0476C151.435 90.5776 156.192 93.7356 167.829 94.1273C179.466 94.5189 186.223 90.2113 187.224 89.5094L186.3 94.1273C185.454 94.589 181.036 95.6512 170.138 96.2053C159.24 96.7594 152.513 93.6655 150.512 92.0492Z" fill="#00022F"/>
<rect x="87.3282" y="0.422118" width="107.91" height="78.4821" rx="3.79906" stroke="white" stroke-width="0.844235"/>
<rect x="92.204" y="4.23999" width="98.8224" height="70.1916" rx="4.22118" fill="url(#paint5_linear)"/>
<path d="M75.6651 74.0151C75.6651 73.2762 73.9719 70.9365 73.1252 69.859C73.2792 69.4742 73.6794 68.7507 74.0488 68.9354C74.5106 69.1663 75.4342 68.9354 77.0504 69.1663C78.6667 69.3972 78.4358 69.859 78.4358 70.0899C78.4358 70.2746 77.8201 70.4747 77.5122 70.5517C77.5892 70.7056 77.8355 71.152 78.2049 71.7061C78.6667 72.3988 78.8976 73.3224 77.5122 74.246C76.1269 75.1695 75.6651 74.9386 75.6651 74.0151Z" fill="url(#paint6_linear)"/>
<path d="M74.0488 70.0291C73.6794 69.8444 73.2792 70.1061 73.1252 70.26C73.2792 70.4139 73.7256 70.9527 74.2797 71.8763C74.9724 73.0308 76.1269 75.1088 76.3578 75.1088C76.5886 75.1088 76.8195 74.647 76.8195 73.7235C76.8195 72.7999 74.5106 70.26 74.0488 70.0291Z" fill="#BB0F1F"/>
<path d="M58.468 127.417C58.2833 127.787 56.8517 127.109 56.1591 126.724C57.6214 121.722 60.9616 108.484 62.6241 95.5539C64.2865 82.6239 64.0864 71.6949 63.7785 67.8467L73.0143 69.232C74.2457 69.9247 76.7086 71.7257 76.7086 73.3881C76.7086 75.4662 75.5541 75.6971 74.6305 76.3897C73.707 77.0824 73.0143 76.1588 68.8582 88.858C64.7021 101.557 58.6989 126.955 58.468 127.417Z" fill="#000026"/>
<path d="M64.2403 75.5175C64.2403 69.9761 63.3168 67.975 62.855 67.6671L87.5606 64.6655C88.0224 68.6677 88.8536 78.1497 88.4841 84.0606C88.0224 91.4492 84.3281 117.54 83.1736 118.233C82.25 118.787 79.8641 118.31 78.7866 118.002C78.9405 114.539 79.2484 106.273 79.2484 100.916C79.2484 94.2199 76.7086 84.5224 76.7086 86.1386C76.7086 87.7549 62.1623 128.392 61.2387 128.854C60.4999 129.223 57.5444 127.776 56.1591 127.007C56.6208 125.314 57.7753 121.142 58.6989 118.002C59.8534 114.077 64.2403 82.4443 64.2403 75.5175Z" fill="url(#paint7_linear)"/>
<path d="M79.212 78.764C79.212 80.6112 77.9806 85.383 77.3649 87.538C77.9806 88.3846 79.3506 91.2785 79.9047 96.0811C80.5974 102.084 79.9047 117.554 79.9047 118.247C79.9047 118.801 81.1361 118.786 81.7518 118.709C81.9058 117.4 82.2598 112.013 82.4445 100.93C82.6754 87.0762 79.212 76.4551 79.212 78.764Z" fill="#010431"/>
<path d="M56.1591 130.677C56.1591 130.122 56.7748 128.137 57.0826 127.213C58.545 127.367 61.4234 127.767 61.2387 128.137C61.0078 128.598 60.3151 131.831 59.8534 131.831C59.3916 131.831 56.1591 131.369 56.1591 130.677Z" fill="#E97C68"/>
<path d="M57.5444 131.138C57.3597 131.323 56.5439 130.907 56.1591 130.677C56.1591 130.122 56.9287 128.137 57.3135 127.213C58.545 127.521 61.0078 128.275 61.0078 128.829C61.0078 129.384 60.546 129.984 60.3151 130.215C59.7764 129.984 58.6527 129.522 58.468 129.522C58.2371 129.522 57.7753 130.907 57.5444 131.138Z" fill="#C01027" fill-opacity="0.65"/>
<path d="M57.5591 131.546C58.2979 131.915 59.5601 131.854 60.0989 131.777L59.4062 135.24C59.4062 135.317 58.9906 135.656 57.3282 136.395C55.2501 137.318 50.8632 137.549 50.8632 137.087C50.8632 136.718 54.4035 132.469 56.1737 130.391C56.3276 130.622 56.8202 131.176 57.5591 131.546Z" fill="url(#paint8_linear)"/>
<path d="M79.4841 122.518C79.4841 122.334 79.9459 119.209 80.1768 117.67C81.5622 117.67 84.3329 117.762 84.3329 118.131C84.3329 118.501 83.7172 121.518 83.4093 122.98C83.3324 123.057 82.9475 123.257 82.024 123.442C80.8695 123.673 79.4841 122.749 79.4841 122.518Z" fill="#EB7E6A"/>
<path d="M79.4841 122.887L79.715 118.731L82.024 118.962C82.024 120.424 81.8854 123.395 81.3313 123.579C80.7771 123.764 79.869 123.195 79.4841 122.887Z" fill="#CB0A27"/>
<path d="M79.5477 127.127C79.3629 126.573 79.6246 124.125 79.7786 122.971C80.5177 123.895 82.857 123.664 83.9342 123.433C84.0112 123.433 84.3037 123.664 84.8578 124.587C85.5505 125.742 88.3212 128.281 87.6285 128.743C86.9359 129.205 79.7786 127.82 79.5477 127.127Z" fill="#0B1D5F"/>
<path d="M79.9069 127.127C79.9069 126.758 80.0608 124.356 80.1378 123.202C79.676 123.202 78.9833 122.971 78.7524 122.971C78.5215 122.971 78.2906 126.665 78.5215 126.896C78.7524 127.127 79.9069 127.589 79.9069 127.127Z" fill="#000228"/>
<path d="M162.736 87.5338C163.66 87.3491 165.738 86.9951 166.661 86.8411C166.892 86.4563 167.216 85.4558 166.662 84.5322C165.969 83.3777 164.815 83.8395 164.353 83.8395C163.891 83.8395 162.044 85.6867 161.351 86.6102C160.658 87.5338 161.582 87.7647 162.736 87.5338Z" fill="#E77A77"/>
<path d="M161.33 86.8854C160.776 87.4396 161.407 87.5781 161.792 87.5781C162.947 87.4242 165.348 87.0701 165.718 86.8854C166.087 86.7007 166.179 85.8849 166.179 85.5001C165.871 85.2692 165.071 84.8074 164.332 84.8074C163.409 84.8074 162.023 86.1927 161.33 86.8854Z" fill="#CB0526"/>
<path d="M166.616 87.9585C166.247 87.4043 166.462 85.5726 166.616 84.7259C176.083 84.7259 177.237 83.3407 179.777 81.9553C182.317 80.57 184.164 75.0284 189.474 68.5634C193.723 63.3914 199.249 62.4063 201.481 62.5602L209.331 82.1861L195.709 100.196C195.17 100.581 193.723 101.396 192.245 101.581C190.398 101.812 184.164 98.8104 183.933 96.2706C183.748 94.2388 186.165 89.1129 187.396 86.804C186.627 88.1124 183.794 90.8215 178.622 91.191C172.157 91.6527 167.078 88.6511 166.616 87.9585Z" fill="url(#paint9_linear)"/>
<path d="M190.087 70.7627C192.488 66.3295 197.399 64.1437 199.554 63.605C192.858 63.8359 190.549 67.0684 188.932 69.1464C187.316 71.2245 181.082 82.3073 176.926 83.9236C173.601 85.2166 168.922 85.0781 166.998 84.8472C166.613 85.155 166.028 85.8631 166.767 86.2325C167.69 86.6943 175.31 88.7724 180.159 85.309C185.007 81.8456 187.085 76.3041 190.087 70.7627Z" fill="#76BECD"/>
<path d="M61.5083 57.3152C61.1389 51.2196 63.2015 29.9928 64.279 20.1414L69.1274 21.5267L70.7436 20.1414C71.9751 20.988 74.6226 22.8659 75.3615 23.6048C76.2851 24.5283 81.3647 31.2242 83.6737 35.8421C85.9826 40.46 90.1387 59.6241 89.9078 61.9331C89.6769 64.242 90.6005 65.1656 80.2103 67.9363C69.8201 70.707 64.0477 68.629 62.8933 67.9363C61.7388 67.2436 61.9701 64.9347 61.5083 57.3152Z" fill="#E45326"/>
<path d="M72.991 13.0149C74.0993 10.6136 70.836 6.16508 69.0658 4.24097L65.1406 7.01169C64.1401 7.78133 62.6008 9.92095 64.4479 12.3222C66.7569 15.3239 71.6056 16.0165 72.991 13.0149Z" fill="#EC7E6D"/>
<path d="M71.2098 15.2918C70.2862 15.7536 69.5935 15.2918 69.1346 16.447C68.5847 17.8309 69.0576 19.6794 69.1346 20.3721C69.0576 20.603 68.8112 21.0648 68.4418 21.0648C68.0724 21.0648 65.6711 19.2176 64.5166 18.294C64.8245 17.3705 65.1604 15.5689 64.9757 14.8301C64.7448 13.9065 63.593 12.2908 63.593 11.829C63.593 11.7331 63.587 11.6808 63.5848 11.6658C63.5836 11.6597 63.5838 11.6595 63.5848 11.6658C63.5942 11.7157 63.6964 12.1633 64.283 12.752C64.5129 12.9828 66.2127 14.4013 67.2846 14.8301C68.4391 15.2918 68.898 15.9839 71.2098 15.2918Z" fill="#E37160"/>
<path d="M64.4481 12.1017C65.4162 13.3108 65.3702 13.9477 65.1393 14.8713C65.0391 15.272 64.6775 16.7954 64.6775 17.4111C65.2932 17.8729 66.5246 18.935 66.5246 18.5656C66.5246 18.1038 67.2173 15.1022 67.6791 14.8711C68.1409 14.64 68.8336 14.8711 68.8336 13.4859C68.8336 12.1007 66.9864 10.4843 66.2937 10.4843C65.601 10.4843 64.6792 9.79489 63.9866 9.564C63.2939 9.3331 63.5254 10.9492 64.4481 12.1017Z" fill="#FF0000" fill-opacity="0.36"/>
<path d="M65.4668 15.0594C65.8362 14.69 65.9285 13.9819 65.9285 13.674C65.9415 13.443 65.3035 12.633 64.5429 11.3653C63.8502 10.2108 64.7738 10.2108 66.8518 10.4417C68.9299 10.6726 69.5442 9.59841 69.8534 8.82546C70.3152 7.67099 69.3916 6.05474 69.1607 4.90027C68.9299 3.7458 71.6082 6.74742 71.7006 6.97831C72.1624 8.13278 73.3168 8.59457 74.2404 8.13278C75.164 7.67099 73.7786 5.36187 73.0859 4.66919C72.3933 3.97651 68.4684 0.974895 65.2359 2.59115C62.0034 4.2074 60.8489 8.36348 61.7725 11.8269C62.696 15.2903 65.005 15.5212 65.4668 15.0594Z" fill="#02114D"/>
<path d="M54.0487 35.3808C55.8959 27.8075 61.5913 22.066 64.208 20.1418C64.3619 28.8388 64.7619 47.2949 65.1313 51.5434C65.5007 55.7918 71.5963 64.8582 74.5979 68.8604L73.4434 70.2457C71.9811 69.8609 68.1791 68.5371 64.6695 66.3205C60.2825 63.5498 57.743 59.1628 55.665 55.2376C53.587 51.3125 51.7398 44.8474 54.0487 35.3808Z" fill="#E34C1F"/>
<path d="M64.1348 20.1418L65.5202 21.989C63.1342 23.7592 58.1314 28.962 57.2079 35.6117C56.0534 43.9239 56.0534 46.6946 58.1314 51.5434C60.2095 56.3921 64.1347 64.0116 69.6761 66.7823C73.4796 68.6841 74.7224 69.0222 74.95 68.934C74.9632 68.9093 74.9754 68.8847 74.9866 68.8604C74.9976 68.8932 74.9877 68.9194 74.95 68.934C74.4222 69.9245 72.3344 71.1525 67.8289 68.6295C62.0566 65.397 57.9007 58.701 54.6682 51.5434C51.4357 44.3857 53.5137 39.306 55.3609 33.0719C56.8386 28.0846 61.8259 22.3738 64.1348 20.1418Z" fill="#CA0612"/>
<path d="M68.8856 22.262C71.5794 28.3422 77.4287 43.0885 79.2758 53.4326C81.123 63.7766 81.123 67.748 80.8921 68.4406" stroke="#C5020A" stroke-width="1.68847"/>
<path d="M84.8909 35.7817C84.8909 34.6734 80.5809 30.5481 78.4259 28.624C79.8882 31.3178 82.8591 36.6591 83.0438 36.4744C83.2747 36.2435 84.8909 37.1671 84.8909 35.7817Z" fill="#C80E13"/>
<path d="M81.6279 24.7176C76.6406 24.9024 72.4692 22.0239 71.0068 20.5616L82.3206 36.2623C82.7054 36.4932 84.5834 36.8165 89.0165 36.2623C94.558 35.5696 96.636 32.7989 98.4832 30.7209C100.33 28.6428 105.41 21.9469 105.641 20.3307C105.826 19.0377 104.025 18.2526 103.101 18.0217C102.716 18.4835 101.023 19.9151 97.3287 21.9469C92.7108 24.4867 87.8621 24.4867 81.6279 24.7176Z" fill="#E5562A"/>
<path d="M81.6584 31.3947C83.1361 33.0572 84.5831 35.4739 85.1218 36.4744C84.8909 36.4744 83.2747 36.4744 83.0438 36.2435C82.6307 35.8305 79.8882 31.0099 78.4259 28.624C78.8877 28.8549 80.1807 29.7323 81.6584 31.3947Z" fill="#CA0D13"/>
<path d="M107.93 12.9385C106.822 14.2315 105.467 17.5564 104.929 18.9417C105.39 19.4805 106.314 20.2809 106.314 20.0962C106.314 19.8653 108.392 18.9417 109.085 17.5564C109.777 16.171 108.161 15.7092 108.161 15.2474C108.161 14.7857 109.316 13.6312 109.546 12.4768C109.777 11.3223 109.316 11.3223 107.93 12.9385Z" fill="url(#paint10_linear)"/>
<path d="M63.711 20.7924C63.3416 20.2383 63.865 18.7144 64.1728 18.0217C65.3273 18.6374 67.7287 20.0998 68.0981 21.0233C68.4676 21.9469 68.2521 23.4092 68.0981 24.025C66.7128 24.2559 64.1728 21.4851 63.711 20.7924Z" fill="url(#paint11_linear)"/>
<path d="M69.0423 21.2542C68.6729 20.7001 69.0423 18.8683 69.2732 18.0217C69.889 18.5605 71.1206 19.7303 71.1206 20.0998C71.1206 20.4692 70.5049 22.1008 70.197 22.8705C69.9661 22.5626 69.4118 21.8084 69.0423 21.2542Z" fill="url(#paint12_linear)"/>
<rect x="112.349" y="11.6614" width="62.803" height="3.23251" rx="1.61625" fill="#D9E7F0"/>
<rect x="112.349" y="20.1418" width="19.8568" height="30.9397" rx="4.22118" fill="#CCE1EE"/>
<rect x="136.732" y="20.1414" width="30.0161" height="4.61787" rx="2.30893" fill="#D9E7F0"/>
<rect x="136.732" y="29.6831" width="30.0161" height="4.61787" rx="2.30893" fill="#D9E7F0"/>
<circle cx="142.874" cy="46.4244" r="5.07966" fill="url(#paint13_linear)"/>
<rect x="153.693" y="47.7048" width="21.2422" height="3.69429" rx="1.84715" fill="#D5E5F0"/>
<path d="M197.843 58.9653C195.996 58.4112 198.304 53.3469 199.69 50.884C200.69 52.1924 202.691 54.9016 202.691 55.271C202.691 55.7328 200.152 59.658 197.843 58.9653Z" fill="url(#paint14_linear)"/>
<path d="M200.54 61.2718C200.54 62.0107 200.232 63.119 200.078 63.5807H201.925C202.002 60.887 202.018 55.9151 201.464 57.5775C200.771 59.6556 198 59.4247 198.231 59.6556C198.462 59.8864 200.54 60.3482 200.54 61.2718Z" fill="#CC2336"/>
<path d="M200.622 53.4344C201.73 54.9122 201.545 58.7449 201.083 61.2847C200.622 69.8278 198.543 70.9822 197.389 76.7546C196.234 82.5269 199.698 85.5285 200.391 85.7594C201.083 85.9903 215.168 85.5285 215.86 85.0667C216.553 84.6049 217.477 82.296 218.169 77.2164C218.862 72.1367 211.629 66.2208 211.243 64.2863C210.55 60.8229 211.704 52.28 209.626 49.971C207.548 47.6621 203.392 46.9694 200.391 48.5857C197.389 50.2019 199.236 51.5873 200.622 53.4344Z" fill="#000116"/>
<path d="M184.285 96.7931C184.655 96.6084 185.055 95.7925 185.209 95.4077L196.292 100.026L199.524 111.108L181.976 115.495C180.899 113.494 178.328 109.954 176.666 111.801C174.588 114.11 172.279 137.199 170.893 138.123C169.508 139.047 165.352 138.123 165.352 137.199C165.352 136.276 165.583 115.726 166.276 109.954C166.968 104.182 169.277 102.104 171.586 100.718C173.895 99.3329 183.823 97.024 184.285 96.7931Z" fill="url(#paint15_linear)"/>
<path d="M171.315 105.285C172.978 102.145 177.088 99.5124 178.935 98.5889C175.856 99.5124 169.33 101.775 167.852 103.438C166.005 105.516 166.005 114.521 165.543 118.446C165.081 122.371 165.543 136.224 166.005 137.379C166.467 138.533 167.852 138.303 168.314 138.303C168.545 138.303 168.314 135.532 168.083 128.605C167.852 121.678 169.93 109.21 171.315 105.285Z" fill="url(#paint16_linear)"/>
<path d="M179.257 115.808C180.92 118.025 183.644 119.811 184.799 120.426C187.107 121.35 192.556 123.105 195.881 122.735C200.037 122.273 207.888 122.504 213.198 118.579C218.509 114.654 219.432 109.343 219.663 97.7987C219.894 86.254 216.2 84.4071 215.738 83.9453C215.276 83.4835 211.582 79.7892 203.962 82.7908C196.343 85.7924 197.036 95.49 196.343 99.646C195.65 103.802 194.727 107.727 193.341 109.574C191.956 111.422 188.262 111.191 183.875 110.729C179.488 110.267 177.641 109.574 177.179 110.267C176.717 110.96 177.179 113.038 179.257 115.808Z" fill="url(#paint17_linear)"/>
<path d="M178.764 133.191C178.21 131.898 178.072 120.184 178.072 114.489L184.537 120.03V123.724C184.537 125.11 183.613 133.653 183.151 134.114C182.69 134.576 179.457 134.807 178.764 133.191Z" fill="url(#paint18_linear)"/>
<path d="M179.133 136.574V133.573L183.058 133.804C183.212 134.65 183.52 136.39 183.52 136.574C183.52 136.805 182.365 137.498 181.442 137.498C180.518 137.498 179.133 137.036 179.133 136.574Z" fill="url(#paint19_linear)"/>
<path d="M178.613 139.292C179.537 138.368 179.058 137.214 179.135 136.752C179.442 137.291 181.046 137.282 181.785 137.282C182.524 137.282 183.067 137.137 183.375 136.752C183.452 136.829 183.97 137.583 184.154 138.137C184.385 138.83 184.154 142.293 184.154 142.755C184.154 143.217 182.077 143.91 179.075 143.91C176.073 143.91 174.688 142.293 174.919 141.832C175.15 141.37 177.459 140.446 178.613 139.292Z" fill="#004A59"/>
<path d="M166.476 140.712C166.291 140.343 166.553 138.249 166.707 137.249C167.861 136.787 170.17 136.233 170.17 137.711C170.17 139.558 170.631 141.405 169.015 141.867C167.399 142.328 166.707 141.174 166.476 140.712Z" fill="url(#paint20_linear)"/>
<path d="M165.056 141.939C165.61 141.015 166.057 140.939 166.211 141.015C167.288 141.323 169.489 141.847 169.674 141.477C169.905 141.015 170.136 141.246 170.136 141.939C170.136 142.632 170.367 147.942 170.367 148.404C170.367 148.866 170.136 149.328 164.825 149.559C159.515 149.789 155.589 149.559 155.82 148.173C156.051 146.788 164.363 143.094 165.056 141.939Z" fill="#007188"/>
<path d="M253.567 192.987L185.592 213.671L249.318 234.355L317.293 217.118L253.567 192.987Z" fill="#373B41"/>
<path d="M249.318 234.089L185.592 214.093V469.896H317.293V217.103L249.318 234.089Z" fill="url(#paint21_linear)"/>
<path d="M210.498 221.691L225.243 208.859L266.351 208.859L299.564 221.269L249.332 233.932L210.498 221.691Z" fill="url(#paint22_linear)"/>
<path d="M242.848 195.32H233.091V201.622H242.848V195.32Z" fill="#F8D7BC"/>
<path d="M232.106 194.814V195.32H242.821V201.616H232.106V202.083H273.306V194.814H232.106Z" fill="#02649B"/>
<path d="M223.634 202.74H253.396C256.57 202.74 259.177 204.963 259.177 207.692V208.035C259.177 210.754 256.615 212.986 253.441 212.986H223.646V202.74H223.634Z" fill="#F8ECE2"/>
<path d="M275.542 202.083H222.201C221.978 202.083 221.833 202.207 221.833 202.397C221.833 202.588 221.978 202.712 222.201 202.712H253.199C256.485 202.712 259.158 205.002 259.158 207.816C259.158 210.63 256.529 212.92 253.232 212.948C253.232 212.948 253.232 212.948 253.199 212.948H222.19C221.967 212.948 221.822 213.072 221.822 213.263C221.822 213.454 221.967 213.578 222.19 213.578H275.531C278.817 213.578 281.49 211.288 281.49 208.474V207.225C281.501 204.401 278.828 202.111 275.542 202.083C275.542 202.111 275.542 202.111 275.542 202.083Z" fill="#F75321"/>
<path d="M254.343 204.927H223.634V204.583H254.343C254.454 204.583 254.565 204.679 254.565 204.774C254.554 204.87 254.454 204.927 254.343 204.927Z" fill="#EBD0BE"/>
<path d="M240.149 200.109H233.087V199.765H240.182C240.293 199.765 240.405 199.86 240.405 199.956C240.371 200.042 240.26 200.109 240.149 200.109Z" fill="#E0C1A6"/>
<path d="M238.467 198.134H233.087V197.79H238.5C238.612 197.79 238.723 197.857 238.723 197.981C238.689 198.039 238.611 198.134 238.467 198.134Z" fill="#E0C1A6"/>
<path d="M256.57 208.906H223.634V208.562H256.57C256.682 208.562 256.793 208.658 256.793 208.753C256.793 208.849 256.682 208.906 256.57 208.906Z" fill="#EBD0BE"/>
<path d="M252.516 211.127H223.634V210.754H252.516C252.627 210.754 252.739 210.821 252.739 210.907C252.728 211.041 252.616 211.098 252.516 211.127Z" fill="#EBD0BE"/>
<path d="M255.571 206.969H223.615V206.625H255.571C255.683 206.625 255.794 206.72 255.794 206.816C255.76 206.873 255.683 206.969 255.571 206.969Z" fill="#EBD0BE"/>
<path d="M251.36 194.261H239.409V190.47H251.36C252.051 190.47 252.607 190.938 252.607 191.54V193.23C252.607 193.794 252.062 194.261 251.36 194.261Z" fill="#F8D0B3"/>
<path d="M274.663 189.906H238.397C238.219 189.906 238.074 190.031 238.074 190.183C238.074 190.336 238.219 190.46 238.397 190.46H251.373C252.063 190.46 252.62 190.928 252.62 191.53V193.191C252.62 193.783 252.075 194.26 251.373 194.26H238.464C238.285 194.289 238.141 194.413 238.174 194.575C238.174 194.7 238.319 194.824 238.464 194.824H274.663C275.354 194.824 275.91 194.356 275.91 193.754V190.938C275.91 190.432 275.32 189.906 274.663 189.906Z" fill="#FF7A82"/>
<path d="M237.483 185.98H256.975C258.111 185.98 259.058 186.763 259.058 187.766V187.89C259.058 188.864 258.144 189.675 256.975 189.675H237.483V185.98Z" fill="#F8E7D8"/>
<path d="M270.784 185.732H236.634C236.556 185.732 236.489 185.799 236.489 185.856C236.489 185.923 236.567 185.98 236.634 185.98H256.894C258.064 185.98 259.055 186.792 259.055 187.833C259.055 188.836 258.108 189.686 256.894 189.686H236.634C236.556 189.686 236.489 189.752 236.489 189.81C236.489 189.877 236.567 189.934 236.634 189.934H270.784C271.953 189.934 272.944 189.122 272.944 188.081V187.575C272.944 186.544 271.953 185.732 270.784 185.732Z" fill="#F8AB1A"/>
<path d="M254.736 187.021H237.483V186.868H254.736C254.814 186.868 254.848 186.897 254.848 186.963C254.848 186.983 254.814 187.021 254.736 187.021Z" fill="#DEBCA7"/>
<path d="M253.09 188.836H237.474V188.683H253.09C253.168 188.683 253.202 188.712 253.202 188.779C253.202 188.808 253.168 188.836 253.09 188.836Z" fill="#DEBCA7"/>
<path d="M256.674 187.93H237.483V187.739H256.674C256.708 187.739 256.786 187.767 256.786 187.834C256.786 187.863 256.752 187.93 256.674 187.93Z" fill="#DEBCA7"/>
<path d="M248.999 208.562H244.209C244.209 208.562 243.441 208.781 242.784 209.85C241.982 211.166 242.238 212.416 241.725 213.389C241.402 214.047 240.845 214.582 240.155 214.954C240.701 215.02 241.291 215.049 241.87 214.982C242.349 214.887 242.784 214.734 243.151 214.477C243.262 214.696 243.296 214.915 243.329 215.135C243.363 215.354 243.363 215.602 243.329 215.822C243.329 215.822 245.089 215.478 245.78 214.601C246.771 213.408 245.925 211.939 247.239 210.088C247.718 209.535 248.297 209.001 248.999 208.562Z" fill="#BFA990"/>
<defs>
<linearGradient id="paint0_linear" x1="63.6806" y1="141.529" x2="63.6806" y2="393.429" gradientUnits="userSpaceOnUse">
<stop stop-color="#1A1D22"/>
<stop offset="1" stop-color="#24272C" stop-opacity="0"/>
</linearGradient>
<linearGradient id="paint1_linear" x1="184.94" y1="150.577" x2="184.94" y2="393.293" gradientUnits="userSpaceOnUse">
<stop stop-color="#13161B"/>
<stop offset="1" stop-color="#1A1D22" stop-opacity="0"/>
</linearGradient>
<linearGradient id="paint2_linear" x1="93.2306" y1="106.097" x2="31.762" y2="203.523" gradientUnits="userSpaceOnUse">
<stop stop-opacity="0.68"/>
<stop offset="1" stop-color="#373B41" stop-opacity="0"/>
</linearGradient>
<linearGradient id="paint3_linear" x1="183.2" y1="115.865" x2="122.083" y2="213.288" gradientUnits="userSpaceOnUse">
<stop stop-opacity="0.65"/>
<stop offset="1" stop-color="#373B41" stop-opacity="0"/>
</linearGradient>
<linearGradient id="paint4_linear" x1="168.522" y1="83.7483" x2="168.522" y2="92.984" gradientUnits="userSpaceOnUse">
<stop stop-color="#0E2060"/>
<stop offset="1" stop-color="#6874A0"/>
</linearGradient>
<linearGradient id="paint5_linear" x1="141.615" y1="4.23999" x2="141.615" y2="74.4316" gradientUnits="userSpaceOnUse">
<stop stop-color="white"/>
<stop offset="1" stop-color="#CEE0EE"/>
</linearGradient>
<linearGradient id="paint6_linear" x1="73.8179" y1="67.7811" x2="75.8438" y2="74.8339" gradientUnits="userSpaceOnUse">
<stop stop-color="#E57864"/>
<stop offset="1" stop-color="#E45C46"/>
</linearGradient>
<linearGradient id="paint7_linear" x1="72.3676" y1="64.6655" x2="78.3248" y2="122.851" gradientUnits="userSpaceOnUse">
<stop stop-color="#414F7E"/>
<stop offset="1" stop-color="#000B57"/>
</linearGradient>
<linearGradient id="paint8_linear" x1="54.3266" y1="132.7" x2="60.3298" y2="135.009" gradientUnits="userSpaceOnUse">
<stop stop-color="#00072C"/>
<stop offset="1" stop-color="#061882"/>
</linearGradient>
<linearGradient id="paint9_linear" x1="187.872" y1="62.5454" x2="187.872" y2="101.594" gradientUnits="userSpaceOnUse">
<stop stop-color="#027CAB"/>
<stop offset="1" stop-color="#00347D"/>
</linearGradient>
<linearGradient id="paint10_linear" x1="107.266" y1="11.6614" x2="107.266" y2="20.1181" gradientUnits="userSpaceOnUse">
<stop stop-color="#C16A58"/>
<stop offset="1" stop-color="#F4866F"/>
</linearGradient>
<linearGradient id="paint11_linear" x1="65.943" y1="18.0217" x2="65.943" y2="24.0386" gradientUnits="userSpaceOnUse">
<stop stop-color="#C9CDD8"/>
<stop offset="1" stop-color="white"/>
</linearGradient>
<linearGradient id="paint12_linear" x1="70.0031" y1="18.0217" x2="70.0031" y2="22.8705" gradientUnits="userSpaceOnUse">
<stop stop-color="#CCD0DA"/>
<stop offset="1" stop-color="white"/>
</linearGradient>
<linearGradient id="paint13_linear" x1="142.874" y1="41.3447" x2="142.874" y2="51.504" gradientUnits="userSpaceOnUse">
<stop stop-color="#D9E7F0"/>
<stop offset="1" stop-color="#D3E3F0"/>
</linearGradient>
<linearGradient id="paint14_linear" x1="199.923" y1="50.884" x2="199.923" y2="59.047" gradientUnits="userSpaceOnUse">
<stop stop-color="#D36C5B"/>
<stop offset="1" stop-color="#EE8E82"/>
</linearGradient>
<linearGradient id="paint15_linear" x1="182.438" y1="95.4077" x2="182.438" y2="138.506" gradientUnits="userSpaceOnUse">
<stop stop-color="#00002E"/>
<stop offset="1" stop-color="#00012D"/>
</linearGradient>
<linearGradient id="paint16_linear" x1="172.143" y1="98.5889" x2="172.143" y2="138.321" gradientUnits="userSpaceOnUse">
<stop stop-color="#414F7E"/>
<stop offset="1" stop-color="#000A56"/>
</linearGradient>
<linearGradient id="paint17_linear" x1="179.026" y1="114.192" x2="220.356" y2="105.187" gradientUnits="userSpaceOnUse">
<stop stop-color="#E8F4FF"/>
<stop offset="1" stop-color="#73A9D8"/>
</linearGradient>
<linearGradient id="paint18_linear" x1="181.304" y1="114.489" x2="181.304" y2="134.455" gradientUnits="userSpaceOnUse">
<stop stop-color="#414F7E"/>
<stop offset="1" stop-color="#000021"/>
</linearGradient>
<linearGradient id="paint19_linear" x1="182.365" y1="134.496" x2="179.595" y2="136.343" gradientUnits="userSpaceOnUse">
<stop stop-color="#BF0826"/>
<stop offset="1" stop-color="#D58A8E"/>
</linearGradient>
<linearGradient id="paint20_linear" x1="170.862" y1="139.327" x2="165.783" y2="139.096" gradientUnits="userSpaceOnUse">
<stop stop-color="#BF173A"/>
<stop offset="1" stop-color="#DF8F86"/>
</linearGradient>
<linearGradient id="paint21_linear" x1="251.857" y1="136.854" x2="244.778" y2="393.487" gradientUnits="userSpaceOnUse">
<stop stop-color="#111418"/>
<stop offset="1" stop-color="#222529"/>
</linearGradient>
<linearGradient id="paint22_linear" x1="271.975" y1="204.775" x2="271.975" y2="233.359" gradientUnits="userSpaceOnUse">
<stop stop-color="#262A2F"/>
<stop offset="1" stop-color="#373B41" stop-opacity="0"/>
</linearGradient>
</defs>
</svg>
